<svg xmlns="http://www.w3.org/2000/svg" xmlns:xlink="http://www.w3.org/1999/xlink" xmlns:svgjs="http://svgjs.com/svgjs" version="1.1" width="658" height="684"><svg xmlns="http://www.w3.org/2000/svg" width="658" height="684" viewBox="0 0 658 684" fill="none">
<path d="M7 334V67.5H239V7H504.5V109H651.5V263H578V334H473.5V427.5H602.5V540H564.5V626.5H422.5V678.5H239V554H107.5V334H7Z" fill="#A49A9D"/>
<rect x="239" y="430" width="182" height="248" fill="#BE6040" stroke="black" stroke-width="11"/>
<path d="M107 333H207V553H107V333Z" fill="#59A88F" stroke="black" stroke-width="11"/>
<path d="M7 66.5H207V301H7V66.5Z" fill="#6D954B" stroke="black" stroke-width="11"/>
<rect x="239" y="7" width="107" height="234" fill="#BE8F3B" stroke="black" stroke-width="11"/>
<rect x="239" y="274" width="107" height="61" fill="#BE8F3B" stroke="black" stroke-width="11"/>
<rect x="516" y="108" width="133" height="73" fill="#BB4B41" stroke="black" stroke-width="11"/>
<path d="M472.5 427H601V538.5H563.5V625H472.5V427Z" fill="#6472D3" stroke="black" stroke-width="11"/>
<rect x="239" y="335" width="158" height="95" fill="#8A8794" stroke="black" stroke-width="11"/>
<path d="M6 333V66.5H238V6H503.5V108H650.5V262H577V333H472.5V426.5H601.5V539H563.5V625.5H421.5V677.5H238V553H106.5V333H6Z" stroke="black" stroke-width="11"/>
</svg><style>@media (prefers-color-scheme: light) { :root { filter: none; } }
</style></svg>
